<svg xmlns="http://www.w3.org/2000/svg" xmlns:xlink="http://www.w3.org/1999/xlink" width="500" zoomAndPan="magnify" viewBox="0 0 375 374.999991" height="500" preserveAspectRatio="xMidYMid meet" version="1.0"><defs><g/><clipPath id="7e8cf2477c"><path d="M 75.949219 170.125 L 299.050781 170.125 L 299.050781 204.875 L 75.949219 204.875 Z M 75.949219 170.125 " clip-rule="nonzero"/></clipPath></defs><rect x="-37.5" width="450" fill="#ffffff" y="-37.499999" height="449.999989" fill-opacity="1"/><rect x="-37.5" width="450" fill="#ffffff" y="-37.499999" height="449.999989" fill-opacity="1"/><rect x="-37.5" width="450" fill="#ffffff" y="-37.499999" height="449.999989" fill-opacity="1"/><g fill="#437353" fill-opacity="1"><g transform="translate(109.325367, 220.733124)"><g><path d="M -2.339844 0 L 13.222656 0 L 13.222656 -1.789062 C 8.539062 -2.753906 7.988281 -7.300781 11.570312 -16.253906 L 19.699219 -36.363281 L 58.542969 -36.363281 L 66.945312 -16.117188 C 71.351562 -5.785156 72.453125 -3.03125 68.183594 -1.789062 L 68.183594 0 L 89.535156 0 L 89.535156 -1.789062 C 86.640625 -3.03125 83.335938 -5.785156 79.066406 -16.117188 L 45.179688 -97.523438 L 34.847656 -92.839844 L 36.089844 -89.949219 C 37.191406 -87.742188 37.328125 -85.953125 36.363281 -83.472656 L 9.230469 -16.253906 C 4.957031 -5.785156 1.515625 -3.03125 -2.339844 -1.789062 Z M 20.523438 -38.429688 L 38.84375 -83.75 L 57.714844 -38.429688 Z M 20.523438 -38.429688 "/></g></g></g><g fill="#437353" fill-opacity="1"><g transform="translate(188.664224, 220.733124)"><g><path d="M 7.023438 0 L 29.339844 0 L 29.339844 -1.789062 C 25.070312 -3.03125 23.828125 -6.199219 23.828125 -17.492188 L 23.828125 -51.65625 L 40.222656 -51.65625 C 55.925781 -51.65625 59.78125 -48.347656 61.570312 -42.148438 L 63.226562 -42.148438 L 63.226562 -63.085938 L 61.570312 -63.085938 C 59.78125 -57.027344 55.925781 -53.71875 40.222656 -53.859375 L 23.828125 -53.859375 L 23.828125 -94.21875 L 48.210938 -94.21875 C 61.160156 -94.21875 66.945312 -90.773438 71.628906 -81.546875 L 73.144531 -81.957031 L 71.902344 -96.421875 L 7.023438 -96.421875 L 7.023438 -94.628906 C 11.15625 -93.390625 12.535156 -90.222656 12.535156 -78.929688 L 12.535156 -17.492188 C 12.535156 -6.199219 11.15625 -3.03125 7.023438 -1.789062 Z M 7.023438 0 "/></g></g></g><g clip-path="url(#7e8cf2477c)"><path fill="#ffffff" d="M 75.949219 170.125 L 299.265625 170.125 L 299.265625 204.34375 L 75.949219 204.34375 Z M 75.949219 170.125 " fill-opacity="1" fill-rule="nonzero"/></g><g fill="#2f3540" fill-opacity="1"><g transform="translate(79.866883, 250.680555)"><g><path d="M 0.804688 0 L 3.359375 0 L 3.359375 -0.203125 C 2.871094 -0.347656 2.730469 -0.710938 2.730469 -2.003906 L 2.730469 -5.726562 L 8.738281 -5.726562 L 8.738281 -2.003906 C 8.738281 -0.710938 8.582031 -0.347656 8.105469 -0.203125 L 8.105469 0 L 10.664062 0 L 10.664062 -0.203125 C 10.171875 -0.347656 10.03125 -0.710938 10.03125 -2.003906 L 10.03125 -9.039062 C 10.03125 -10.332031 10.171875 -10.695312 10.664062 -10.835938 L 10.664062 -11.039062 L 8.105469 -11.039062 L 8.105469 -10.835938 C 8.582031 -10.695312 8.738281 -10.332031 8.738281 -9.039062 L 8.738281 -5.976562 L 2.730469 -5.976562 L 2.730469 -9.039062 C 2.730469 -10.332031 2.871094 -10.695312 3.359375 -10.835938 L 3.359375 -11.039062 L 0.804688 -11.039062 L 0.804688 -10.835938 C 1.277344 -10.695312 1.433594 -10.332031 1.433594 -9.039062 L 1.433594 -2.003906 C 1.433594 -0.710938 1.277344 -0.347656 0.804688 -0.203125 Z M 0.804688 0 "/></g></g></g><g fill="#2f3540" fill-opacity="1"><g transform="translate(103.660471, 250.680555)"><g><path d="M -0.269531 0 L 1.515625 0 L 1.515625 -0.203125 C 0.976562 -0.316406 0.914062 -0.835938 1.324219 -1.859375 L 2.253906 -4.164062 L 6.703125 -4.164062 L 7.664062 -1.84375 C 8.171875 -0.664062 8.296875 -0.347656 7.808594 -0.203125 L 7.808594 0 L 10.253906 0 L 10.253906 -0.203125 C 9.921875 -0.347656 9.542969 -0.664062 9.054688 -1.84375 L 5.171875 -11.167969 L 3.992188 -10.628906 L 4.132812 -10.300781 C 4.257812 -10.046875 4.273438 -9.84375 4.164062 -9.558594 L 1.058594 -1.859375 C 0.566406 -0.664062 0.171875 -0.347656 -0.269531 -0.203125 Z M 2.351562 -4.402344 L 4.449219 -9.589844 L 6.609375 -4.402344 Z M 2.351562 -4.402344 "/></g></g></g><g fill="#2f3540" fill-opacity="1"><g transform="translate(126.11431, 250.680555)"><g><path d="M 0.804688 0 L 3.359375 0 L 3.359375 -0.203125 C 2.871094 -0.347656 2.730469 -0.710938 2.730469 -2.003906 L 2.730469 -9.039062 C 2.730469 -10.332031 2.871094 -10.695312 3.359375 -10.835938 L 3.359375 -11.039062 L 0.804688 -11.039062 L 0.804688 -10.835938 C 1.277344 -10.695312 1.433594 -10.332031 1.433594 -9.039062 L 1.433594 -2.003906 C 1.433594 -0.710938 1.277344 -0.347656 0.804688 -0.203125 Z M 0.804688 0 "/></g></g></g><g fill="#2f3540" fill-opacity="1"><g transform="translate(142.625975, 250.680555)"><g><path d="M 8.832031 0.109375 C 9.148438 0.109375 9.558594 0.078125 9.792969 0 L 9.792969 -0.1875 C 9.714844 -0.171875 9.636719 -0.171875 9.542969 -0.171875 C 9.007812 -0.171875 8.691406 -0.695312 7.933594 -2.585938 C 7.175781 -4.527344 6.875 -5.488281 4.9375 -5.742188 C 6.988281 -5.976562 8.058594 -7.097656 8.058594 -8.582031 C 8.058594 -9.984375 7.113281 -11.039062 3.910156 -11.039062 L 0.804688 -11.039062 L 0.804688 -10.835938 C 1.292969 -10.695312 1.433594 -10.332031 1.433594 -9.039062 L 1.433594 -2.003906 C 1.433594 -0.710938 1.292969 -0.347656 0.804688 -0.203125 L 0.804688 0 L 3.359375 0 L 3.359375 -0.203125 C 2.871094 -0.347656 2.730469 -0.710938 2.730469 -2.003906 L 2.730469 -5.695312 L 3.738281 -5.695312 C 5.628906 -5.695312 5.757812 -4.589844 6.671875 -2.414062 C 7.367188 -0.773438 7.617188 0.109375 8.832031 0.109375 Z M 2.730469 -5.929688 L 2.730469 -10.773438 C 2.980469 -10.789062 3.234375 -10.804688 3.46875 -10.804688 C 5.804688 -10.804688 6.71875 -9.621094 6.71875 -8.21875 C 6.71875 -6.875 5.867188 -5.929688 4.054688 -5.929688 Z M 2.730469 -5.929688 "/></g></g></g><g fill="#2f3540" fill-opacity="1"><g transform="translate(164.622726, 250.680555)"><g><path d="M 4.496094 0.15625 C 6.355469 0.15625 8.1875 -1.039062 8.1875 -3.011719 C 8.1875 -4.792969 6.546875 -5.488281 4.792969 -6.183594 C 3.453125 -6.734375 1.828125 -7.335938 1.828125 -8.816406 C 1.828125 -10.15625 2.917969 -10.898438 4.195312 -10.898438 C 5.992188 -10.898438 7.097656 -9.921875 7.679688 -8.546875 L 7.839844 -8.597656 L 7.777344 -10.425781 C 7.160156 -10.757812 6.136719 -11.152344 4.699219 -11.152344 C 2.382812 -11.152344 0.851562 -9.984375 0.851562 -8.136719 C 0.851562 -6.464844 2.035156 -5.804688 3.894531 -5.0625 C 5.21875 -4.527344 7.160156 -3.800781 7.160156 -2.222656 C 7.160156 -0.945312 6.074219 -0.125 4.8125 -0.125 C 2.617188 -0.125 1.417969 -1.53125 0.804688 -3.1875 L 0.632812 -3.15625 L 0.710938 -0.960938 C 1.449219 -0.425781 2.839844 0.15625 4.496094 0.15625 Z M 4.496094 0.15625 "/></g></g></g><g fill="#2f3540" fill-opacity="1"><g transform="translate(185.658006, 250.680555)"><g><path d="M 3.140625 0 L 5.710938 0 L 5.710938 -0.203125 C 5.21875 -0.347656 5.078125 -0.710938 5.078125 -2.003906 L 5.078125 -10.789062 L 5.820312 -10.789062 C 7.238281 -10.789062 7.855469 -10.410156 8.390625 -9.273438 L 8.566406 -9.304688 L 8.46875 -11.039062 L 0.347656 -11.039062 L 0.253906 -9.304688 L 0.425781 -9.273438 C 0.960938 -10.410156 1.578125 -10.789062 2.996094 -10.789062 L 3.769531 -10.789062 L 3.769531 -2.003906 C 3.769531 -0.710938 3.628906 -0.347656 3.140625 -0.203125 Z M 3.140625 0 "/></g></g></g><g fill="#2f3540" fill-opacity="1"><g transform="translate(206.83516, 250.680555)"><g><path d="M 2.980469 0 L 5.550781 0 L 5.550781 -0.203125 C 5.0625 -0.347656 4.921875 -0.710938 4.921875 -2.003906 L 4.921875 -5 L 7.335938 -9.289062 C 7.964844 -10.410156 8.453125 -10.695312 8.878906 -10.835938 L 8.878906 -11.039062 L 7.003906 -11.039062 L 7.003906 -10.835938 C 7.601562 -10.726562 7.585938 -10.253906 7.050781 -9.289062 L 4.84375 -5.378906 L 2.648438 -9.289062 C 2.019531 -10.410156 1.828125 -10.695312 2.304688 -10.835938 L 2.304688 -11.039062 L -0.1875 -11.039062 L -0.1875 -10.835938 C 0.140625 -10.695312 0.597656 -10.410156 1.214844 -9.289062 L 3.597656 -4.96875 L 3.597656 -2.003906 C 3.613281 -0.710938 3.453125 -0.347656 2.980469 -0.203125 Z M 2.980469 0 "/></g></g></g><g fill="#2f3540" fill-opacity="1"><g transform="translate(227.854681, 250.680555)"><g><path d="M 0.804688 0 L 8.136719 0 L 8.25 -1.78125 L 8.074219 -1.8125 C 7.523438 -0.632812 6.828125 -0.253906 5.316406 -0.253906 L 3.4375 -0.253906 C 2.980469 -0.253906 2.730469 -0.503906 2.730469 -0.960938 L 2.730469 -9.039062 C 2.730469 -10.332031 2.871094 -10.695312 3.359375 -10.835938 L 3.359375 -11.039062 L 0.804688 -11.039062 L 0.804688 -10.835938 C 1.277344 -10.695312 1.433594 -10.332031 1.433594 -9.039062 L 1.433594 -2.003906 C 1.433594 -0.710938 1.277344 -0.347656 0.804688 -0.203125 Z M 0.804688 0 "/></g></g></g><g fill="#2f3540" fill-opacity="1"><g transform="translate(248.763883, 250.680555)"><g><path d="M 0.804688 0 L 3.359375 0 L 3.359375 -0.203125 C 2.871094 -0.347656 2.730469 -0.710938 2.730469 -2.003906 L 2.730469 -9.039062 C 2.730469 -10.332031 2.871094 -10.695312 3.359375 -10.835938 L 3.359375 -11.039062 L 0.804688 -11.039062 L 0.804688 -10.835938 C 1.277344 -10.695312 1.433594 -10.332031 1.433594 -9.039062 L 1.433594 -2.003906 C 1.433594 -0.710938 1.277344 -0.347656 0.804688 -0.203125 Z M 0.804688 0 "/></g></g></g><g fill="#2f3540" fill-opacity="1"><g transform="translate(265.275555, 250.680555)"><g><path d="M 4.496094 0.15625 C 6.355469 0.15625 8.1875 -1.039062 8.1875 -3.011719 C 8.1875 -4.792969 6.546875 -5.488281 4.792969 -6.183594 C 3.453125 -6.734375 1.828125 -7.335938 1.828125 -8.816406 C 1.828125 -10.15625 2.917969 -10.898438 4.195312 -10.898438 C 5.992188 -10.898438 7.097656 -9.921875 7.679688 -8.546875 L 7.839844 -8.597656 L 7.777344 -10.425781 C 7.160156 -10.757812 6.136719 -11.152344 4.699219 -11.152344 C 2.382812 -11.152344 0.851562 -9.984375 0.851562 -8.136719 C 0.851562 -6.464844 2.035156 -5.804688 3.894531 -5.0625 C 5.21875 -4.527344 7.160156 -3.800781 7.160156 -2.222656 C 7.160156 -0.945312 6.074219 -0.125 4.8125 -0.125 C 2.617188 -0.125 1.417969 -1.53125 0.804688 -3.1875 L 0.632812 -3.15625 L 0.710938 -0.960938 C 1.449219 -0.425781 2.839844 0.15625 4.496094 0.15625 Z M 4.496094 0.15625 "/></g></g></g><g fill="#2f3540" fill-opacity="1"><g transform="translate(286.310847, 250.680555)"><g><path d="M 3.140625 0 L 5.710938 0 L 5.710938 -0.203125 C 5.21875 -0.347656 5.078125 -0.710938 5.078125 -2.003906 L 5.078125 -10.789062 L 5.820312 -10.789062 C 7.238281 -10.789062 7.855469 -10.410156 8.390625 -9.273438 L 8.566406 -9.304688 L 8.46875 -11.039062 L 0.347656 -11.039062 L 0.253906 -9.304688 L 0.425781 -9.273438 C 0.960938 -10.410156 1.578125 -10.789062 2.996094 -10.789062 L 3.769531 -10.789062 L 3.769531 -2.003906 C 3.769531 -0.710938 3.628906 -0.347656 3.140625 -0.203125 Z M 3.140625 0 "/></g></g></g><g fill="#2f3540" fill-opacity="1"><g transform="translate(112.439536, 206.464484)"><g><path d="M 3.421875 -4.78125 C 8.90625 -3.824219 15.5 -6.492188 19.324219 -10.316406 C 22.546875 -13.585938 24.859375 -17.664062 26.972656 -21.691406 C 27.730469 -23.097656 27.878906 -23.25 28.332031 -22.898438 C 28.535156 -22.746094 28.535156 -22.746094 28.28125 -21.890625 C 27.929688 -20.835938 27.074219 -18.066406 27.277344 -15.652344 C 27.425781 -14.140625 28.03125 -12.582031 28.28125 -12.683594 C 28.382812 -12.683594 28.433594 -13.035156 28.484375 -13.035156 C 28.433594 -13.738281 28.132812 -13.941406 28.082031 -15.199219 C 28.03125 -16.054688 28.03125 -16.960938 28.382812 -18.621094 C 28.886719 -21.1875 30.09375 -24.609375 30.648438 -25.816406 L 33.414062 -32.460938 C 33.820312 -33.414062 33.71875 -33.820312 33.367188 -33.820312 C 33.265625 -33.820312 33.113281 -33.71875 33.011719 -33.617188 C 32.8125 -33.414062 32.007812 -31.753906 31.855469 -31.351562 C 31.855469 -31.203125 31.703125 -30.847656 31.554688 -30.597656 C 31.152344 -29.894531 30.496094 -28.28125 30.144531 -27.277344 L 29.289062 -24.910156 C 28.835938 -23.402344 28.785156 -23.351562 28.183594 -23.351562 L 27.78125 -23.351562 L 28.835938 -25.414062 C 29.390625 -26.519531 30.144531 -28.132812 30.546875 -28.988281 C 30.898438 -29.84375 31.300781 -30.75 31.453125 -30.949219 C 31.753906 -31.351562 31.753906 -31.554688 31.554688 -31.554688 C 31.25 -31.554688 30.597656 -30.597656 29.894531 -29.136719 L 27.074219 -23.402344 L 25.96875 -23.300781 C 25.363281 -23.300781 24.355469 -23.199219 23.753906 -23.097656 C 20.984375 -22.695312 15.703125 -21.890625 14.441406 -19.273438 C 14.089844 -18.570312 14.191406 -18.117188 14.695312 -18.269531 C 14.894531 -18.367188 14.945312 -18.46875 14.945312 -18.671875 C 14.945312 -19.125 15.199219 -19.578125 15.800781 -20.128906 C 17.765625 -22.042969 22.597656 -22.644531 25.011719 -22.898438 C 26.269531 -23.050781 26.773438 -23.050781 26.824219 -22.949219 C 27.226562 -22.292969 21.136719 -13.035156 20.933594 -12.832031 C 16.859375 -7.597656 10.617188 -4.378906 4.078125 -4.980469 C 1.410156 -5.285156 -1.761719 -7.449219 -2.0625 -10.316406 C -2.113281 -10.71875 -2.164062 -10.820312 -2.367188 -10.71875 C -2.566406 -10.667969 -2.566406 -10.46875 -2.367188 -9.710938 C -1.558594 -7.195312 0.855469 -5.234375 3.421875 -4.78125 Z M 3.421875 -4.78125 "/></g></g></g><g fill="#2f3540" fill-opacity="1"><g transform="translate(143.587857, 206.464484)"><g><path d="M 3.421875 -4.78125 C 3.625 -4.882812 3.574219 -4.882812 2.96875 -5.082031 C 2.214844 -5.386719 1.914062 -5.636719 1.558594 -6.140625 C 0.402344 -7.597656 0.351562 -9.359375 1.257812 -11.925781 C 2.0625 -14.140625 2.164062 -14.542969 1.960938 -14.894531 C 1.914062 -14.996094 1.8125 -15.097656 1.761719 -15.097656 C 1.609375 -15.097656 1.207031 -15.550781 1.058594 -15.953125 C 0.90625 -16.253906 0.90625 -16.304688 1.207031 -16.558594 C 1.761719 -17.011719 3.472656 -19.171875 2.71875 -19.777344 C 2.414062 -20.03125 2.164062 -20.03125 1.660156 -19.777344 C 0.453125 -19.171875 -1.105469 -16.808594 -0.203125 -15.550781 C 0 -15.296875 0.402344 -14.894531 0.804688 -14.644531 C 0.855469 -14.59375 0.855469 -14.542969 0.804688 -14.441406 L 0.703125 -14.191406 C 0.101562 -12.882812 -0.203125 -11.976562 -0.554688 -10.871094 C -0.804688 -10.117188 -0.753906 -8.757812 -0.703125 -8.304688 C -0.503906 -6.691406 0.753906 -5.484375 2.265625 -4.980469 C 3.019531 -4.730469 3.171875 -4.679688 3.421875 -4.78125 Z M 0.90625 -16.757812 C 0.804688 -16.757812 0.90625 -17.460938 1.058594 -18.015625 C 1.207031 -18.519531 1.761719 -19.425781 1.960938 -19.476562 C 2.316406 -19.578125 2.414062 -19.578125 2.464844 -19.273438 C 2.617188 -18.722656 1.207031 -16.808594 0.90625 -16.757812 Z M 0.90625 -16.757812 "/></g></g></g><g fill="#2f3540" fill-opacity="1"><g transform="translate(147.865086, 206.464484)"><g><path d="M 4.527344 -13.941406 C 5.9375 -13.539062 7.144531 -13.941406 8.90625 -15.046875 C 10.265625 -15.902344 10.367188 -16.304688 10.164062 -16.15625 L 9.007812 -15.398438 C 7.5 -14.394531 5.285156 -13.488281 4.628906 -15.398438 C 4.480469 -15.851562 4.378906 -16.15625 4.378906 -16.859375 C 4.378906 -16.960938 4.277344 -17.109375 4.175781 -17.210938 C 3.773438 -17.613281 2.96875 -17.414062 1.914062 -16.605469 C 1.710938 -16.457031 1.558594 -16.40625 1.507812 -16.40625 C 1.460938 -16.40625 1.609375 -16.757812 1.710938 -17.058594 C 1.914062 -17.714844 2.0625 -17.867188 2.011719 -18.117188 C 1.960938 -18.316406 1.359375 -18.269531 1.007812 -18.015625 C 0.703125 -17.816406 0.605469 -17.664062 0.101562 -16.605469 C -0.25 -15.902344 -0.300781 -15.097656 0 -14.847656 C 0.300781 -14.59375 0.554688 -14.796875 1.308594 -15.550781 C 1.460938 -15.703125 2.667969 -16.808594 2.96875 -16.808594 C 3.019531 -16.808594 3.019531 -16.558594 3.019531 -16.304688 C 3.070312 -15.398438 3.222656 -14.292969 4.527344 -13.941406 Z M 4.527344 -13.941406 "/></g></g></g><g fill="#2f3540" fill-opacity="1"><g transform="translate(158.029808, 206.464484)"><g><path d="M -0.152344 -14.492188 C 0.300781 -14.492188 0.554688 -14.644531 1.257812 -15.199219 L 1.8125 -15.652344 C 1.960938 -15.097656 2.265625 -14.695312 2.667969 -14.492188 C 3.925781 -13.789062 8.050781 -15.199219 8.304688 -16.253906 C 8.304688 -16.304688 7.902344 -15.902344 6.742188 -15.449219 C 5.484375 -15.046875 4.480469 -14.644531 3.824219 -14.945312 C 3.070312 -15.296875 3.171875 -15.953125 3.371094 -16.558594 C 3.625 -17.363281 3.875 -17.816406 3.722656 -17.964844 C 3.671875 -18.015625 3.523438 -18.167969 3.421875 -18.316406 C 3.171875 -18.722656 2.71875 -18.769531 1.960938 -18.417969 C 0.90625 -17.914062 -0.554688 -16.003906 -0.652344 -15.097656 C -0.703125 -14.644531 -0.554688 -14.492188 -0.152344 -14.492188 Z M 0.351562 -15.046875 C -0.203125 -15.046875 1.15625 -17.460938 1.960938 -17.964844 C 2.367188 -18.21875 2.917969 -18.269531 3.019531 -18.066406 C 3.171875 -17.765625 0.804688 -15.046875 0.351562 -15.046875 Z M 0.351562 -15.046875 "/></g></g></g><g fill="#2f3540" fill-opacity="1"><g transform="translate(166.232028, 206.464484)"><g><path d="M 3.875 -14.34375 C 4.226562 -14.34375 4.730469 -14.441406 4.882812 -14.492188 C 5.585938 -14.644531 6.289062 -14.894531 6.945312 -15.199219 C 7.144531 -15.296875 8.757812 -16.054688 8.605469 -16.304688 C 8.554688 -16.355469 8.203125 -16.105469 8.050781 -16.003906 L 7.296875 -15.652344 C 6.390625 -15.296875 5.484375 -14.996094 4.527344 -14.894531 L 4.175781 -14.945312 L 4.125 -14.996094 C 4.027344 -15.199219 4.328125 -15.953125 4.429688 -16.15625 C 4.628906 -16.65625 5.285156 -17.5625 5.285156 -18.117188 C 5.234375 -18.316406 4.480469 -18.21875 4.328125 -18.066406 C 3.976562 -17.714844 3.574219 -17.109375 3.222656 -16.757812 C 2.0625 -15.652344 1.15625 -15.097656 0.804688 -15.097656 C 0.503906 -15.097656 0.703125 -15.5 1.609375 -17.058594 C 2.011719 -17.816406 2.164062 -18.316406 1.960938 -18.417969 C 1.761719 -18.519531 1.257812 -18.570312 1.058594 -18.46875 C 0.804688 -18.316406 -0.25 -16.105469 -0.25 -15.75 C -0.25 -15.550781 -0.152344 -15.199219 -0.0507812 -14.996094 C 0.152344 -14.59375 0.203125 -14.542969 0.503906 -14.542969 C 0.703125 -14.542969 1.007812 -14.644531 1.15625 -14.746094 C 1.914062 -15.148438 2.214844 -15.347656 2.566406 -15.652344 L 2.96875 -16.003906 L 2.96875 -15.550781 C 2.96875 -15.097656 3.222656 -14.292969 3.875 -14.34375 Z M 3.875 -14.34375 "/></g></g></g><g fill="#2f3540" fill-opacity="1"><g transform="translate(174.585208, 206.464484)"><g><path d="M 2.917969 -11.070312 C 3.070312 -11.171875 3.019531 -11.375 2.769531 -11.472656 C 2.0625 -11.777344 2.164062 -13.890625 2.96875 -15.5 L 3.625 -16.960938 C 4.125 -18.015625 4.226562 -18.167969 5.484375 -19.375 C 6.191406 -20.078125 6.996094 -20.984375 7.296875 -21.289062 L 8.101562 -22.242188 C 8.65625 -22.847656 11.976562 -27.226562 10.871094 -28.28125 C 10.617188 -28.585938 10.46875 -28.535156 9.914062 -28.183594 C 9.308594 -27.78125 8.050781 -26.371094 7.046875 -24.859375 C 5.789062 -23.050781 5.082031 -21.839844 3.671875 -18.871094 C 3.472656 -18.417969 3.269531 -18.066406 3.269531 -18.066406 C 3.222656 -18.066406 3.070312 -18.167969 2.917969 -18.269531 C 1.914062 -19.074219 0.203125 -16.859375 -0.152344 -16.054688 C -0.605469 -15.148438 -0.605469 -14.695312 -0.203125 -14.394531 C 0.101562 -14.191406 0.652344 -14.292969 1.257812 -14.695312 C 1.460938 -14.847656 1.660156 -14.945312 1.660156 -14.945312 C 1.710938 -14.945312 1.609375 -14.59375 1.507812 -14.191406 C 1.058594 -12.984375 1.15625 -11.875 1.761719 -11.472656 C 2.113281 -11.222656 2.769531 -10.972656 2.917969 -11.070312 Z M 4.933594 -19.375 C 4.78125 -19.375 6.792969 -23.5 7.449219 -24.558594 C 7.902344 -25.3125 9.160156 -26.972656 9.511719 -27.328125 C 9.664062 -27.527344 10.417969 -28.484375 10.617188 -27.929688 C 10.71875 -27.628906 10.71875 -26.570312 9.914062 -25.363281 C 9.109375 -23.953125 8.402344 -22.898438 7.800781 -22.292969 L 6.792969 -21.1875 C 6.191406 -20.53125 5.03125 -19.375 4.933594 -19.375 Z M 0.703125 -14.847656 C 0.351562 -14.847656 0.351562 -15.5 0.652344 -16.304688 C 0.804688 -16.707031 1.8125 -18.316406 2.464844 -18.117188 C 2.667969 -18.066406 2.867188 -17.867188 2.867188 -17.613281 C 2.867188 -17.363281 2.164062 -15.75 2.011719 -15.75 C 1.410156 -15.25 0.90625 -14.847656 0.703125 -14.847656 Z M 0.703125 -14.847656 "/></g></g></g><g fill="#2f3540" fill-opacity="1"><g transform="translate(181.126856, 206.464484)"><g/></g></g><g fill="#2f3540" fill-opacity="1"><g transform="translate(188.674909, 206.464484)"><g><path d="M 11.675781 -24.308594 C 11.726562 -24.15625 11.875 -24.15625 11.976562 -24.308594 C 12.179688 -24.761719 10.367188 -25.714844 10.265625 -27.476562 C 10.066406 -28.382812 10.566406 -29.992188 11.324219 -30.800781 C 14.59375 -34.371094 20.984375 -34.574219 25.363281 -33.113281 L 26.117188 -32.914062 C 28.988281 -32.058594 31.703125 -31.25 34.722656 -31.050781 C 37.59375 -30.847656 40.5625 -31.503906 42.222656 -33.96875 C 42.976562 -35.027344 43.378906 -36.03125 43.230469 -36.335938 C 43.078125 -36.484375 42.828125 -36.535156 42.625 -36.433594 C 42.574219 -36.433594 42.324219 -36.082031 42.171875 -35.679688 C 40.664062 -32.863281 38.699219 -31.402344 35.328125 -31.503906 C 32.007812 -31.605469 29.238281 -32.308594 26.117188 -33.414062 C 21.640625 -34.976562 15.199219 -34.976562 11.421875 -32.007812 C 9.964844 -30.898438 9.261719 -29.792969 9.109375 -28.382812 C 8.957031 -27.125 9.664062 -25.515625 10.769531 -24.808594 C 11.019531 -24.609375 11.324219 -24.457031 11.421875 -24.457031 C 11.523438 -24.457031 11.625 -24.40625 11.675781 -24.308594 Z M 10.71875 -10.015625 C 11.019531 -10.066406 11.375 -10.117188 11.421875 -10.066406 C 12.480469 -9.410156 17.867188 -9.058594 18.722656 -10.46875 C 18.820312 -10.617188 18.570312 -10.566406 17.964844 -10.367188 C 16.253906 -9.710938 14.140625 -9.664062 12.378906 -10.367188 C 12.078125 -10.46875 12.078125 -10.46875 12.832031 -10.820312 C 13.585938 -11.171875 14.34375 -11.726562 14.945312 -12.429688 C 16.203125 -13.738281 18.722656 -16.253906 19.578125 -20.382812 L 19.625 -20.632812 L 21.589844 -21.238281 C 21.839844 -21.289062 22.042969 -21.335938 22.09375 -21.289062 C 22.144531 -21.238281 21.992188 -20.382812 21.789062 -19.878906 L 21.488281 -18.820312 C 21.386719 -18.367188 21.238281 -17.964844 21.1875 -17.914062 C 21.136719 -17.816406 21.136719 -17.664062 21.1875 -17.5625 C 21.488281 -16.859375 23.652344 -22.34375 23.652344 -23.90625 C 23.652344 -24.355469 23.453125 -24.609375 23.199219 -24.457031 C 23.050781 -24.355469 22.898438 -24.003906 22.695312 -23.300781 C 22.34375 -22.042969 22.191406 -21.839844 21.589844 -21.789062 C 21.335938 -21.789062 20.835938 -21.640625 20.433594 -21.488281 L 19.828125 -21.289062 L 20.078125 -22.144531 C 20.382812 -23 20.734375 -24.207031 20.835938 -24.859375 C 21.136719 -26.621094 21.941406 -31.152344 23.351562 -31.90625 C 23.753906 -32.105469 24.558594 -32.8125 24.558594 -32.960938 C 24.558594 -33.164062 24.355469 -33.113281 23.5 -32.710938 C 22.242188 -32.007812 21.386719 -30.847656 20.785156 -28.886719 C 19.878906 -26.066406 19.125 -23.097656 18.316406 -20.230469 C 17.460938 -17.058594 15.25 -13.085938 12.378906 -11.222656 C 11.625 -10.71875 11.375 -10.71875 10.566406 -11.019531 C 8.957031 -11.625 7.800781 -11.828125 7.097656 -11.574219 C 6.84375 -11.472656 6.542969 -10.972656 6.542969 -10.617188 C 7.699219 -8.855469 10.214844 -9.863281 10.71875 -10.015625 Z M 7.648438 -10.117188 C 6.441406 -10.871094 7.699219 -11.375 8.453125 -11.121094 C 8.957031 -10.972656 9.460938 -10.871094 9.914062 -10.667969 C 10.519531 -10.417969 10.46875 -10.265625 9.613281 -10.117188 C 8.253906 -9.914062 8 -9.914062 7.648438 -10.117188 Z M 7.648438 -10.117188 "/></g></g></g><g fill="#2f3540" fill-opacity="1"><g transform="translate(214.338307, 206.464484)"><g><path d="M -0.203125 -13.585938 C 0 -13.335938 1.15625 -13.4375 1.710938 -13.738281 C 2.917969 -14.394531 3.070312 -14.996094 3.269531 -15.199219 C 4.832031 -14.996094 5.789062 -15.199219 6.492188 -15.398438 C 6.742188 -15.449219 7.648438 -16.15625 7.648438 -16.203125 C 7.648438 -16.40625 6.742188 -15.75 6.039062 -15.601562 C 4.882812 -15.347656 4.226562 -15.449219 3.523438 -15.550781 C 3.976562 -16.605469 4.226562 -17.5625 3.523438 -19.023438 C 3.019531 -19.878906 1.558594 -20.128906 0.453125 -19.929688 C -0.453125 -19.777344 -1.058594 -19.074219 -1.207031 -18.167969 C -1.308594 -17.460938 -1.207031 -17.058594 -0.652344 -16.65625 C -0.402344 -16.457031 -0.152344 -16.203125 -0.152344 -16.15625 C -0.152344 -16.105469 -0.203125 -15.851562 -0.351562 -15.601562 C -0.703125 -14.996094 -0.652344 -14.140625 -0.203125 -13.585938 Z M 2.96875 -15.652344 C 2.566406 -15.601562 1.8125 -15.75 1.609375 -15.953125 C 1.558594 -16.003906 1.660156 -16.15625 1.710938 -16.355469 C 1.8125 -16.808594 1.710938 -16.859375 1.15625 -16.859375 C 0.855469 -16.859375 0.703125 -16.859375 0.503906 -16.65625 L 0.300781 -16.457031 L 0.0507812 -16.65625 C -0.503906 -17.058594 -0.703125 -17.613281 -0.554688 -18.367188 C -0.453125 -18.921875 -0.152344 -19.273438 0.25 -19.476562 C 1.257812 -19.980469 2.96875 -19.324219 3.269531 -18.269531 C 3.523438 -17.363281 3.269531 -16.105469 2.96875 -15.652344 Z M 0.90625 -13.941406 C 0.703125 -13.941406 0.652344 -13.992188 0.652344 -14.191406 C 0.652344 -14.542969 1.105469 -15.398438 1.308594 -15.5 C 1.410156 -15.550781 1.558594 -15.550781 1.660156 -15.550781 C 2.011719 -15.449219 2.367188 -15.296875 2.71875 -15.296875 C 2.71875 -14.945312 1.359375 -13.941406 0.90625 -13.941406 Z M 0.90625 -13.941406 "/></g></g></g><g fill="#2f3540" fill-opacity="1"><g transform="translate(221.78572, 206.464484)"><g><path d="M 3.875 -14.34375 C 4.226562 -14.34375 4.730469 -14.441406 4.882812 -14.492188 C 5.585938 -14.644531 6.289062 -14.894531 6.945312 -15.199219 C 7.144531 -15.296875 8.757812 -16.054688 8.605469 -16.304688 C 8.554688 -16.355469 8.203125 -16.105469 8.050781 -16.003906 L 7.296875 -15.652344 C 6.390625 -15.296875 5.484375 -14.996094 4.527344 -14.894531 L 4.175781 -14.945312 L 4.125 -14.996094 C 4.027344 -15.199219 4.328125 -15.953125 4.429688 -16.15625 C 4.628906 -16.65625 5.285156 -17.5625 5.285156 -18.117188 C 5.234375 -18.316406 4.480469 -18.21875 4.328125 -18.066406 C 3.976562 -17.714844 3.574219 -17.109375 3.222656 -16.757812 C 2.0625 -15.652344 1.15625 -15.097656 0.804688 -15.097656 C 0.503906 -15.097656 0.703125 -15.5 1.609375 -17.058594 C 2.011719 -17.816406 2.164062 -18.316406 1.960938 -18.417969 C 1.761719 -18.519531 1.257812 -18.570312 1.058594 -18.46875 C 0.804688 -18.316406 -0.25 -16.105469 -0.25 -15.75 C -0.25 -15.550781 -0.152344 -15.199219 -0.0507812 -14.996094 C 0.152344 -14.59375 0.203125 -14.542969 0.503906 -14.542969 C 0.703125 -14.542969 1.007812 -14.644531 1.15625 -14.746094 C 1.914062 -15.148438 2.214844 -15.347656 2.566406 -15.652344 L 2.96875 -16.003906 L 2.96875 -15.550781 C 2.96875 -15.097656 3.222656 -14.292969 3.875 -14.34375 Z M 3.875 -14.34375 "/></g></g></g><g fill="#2f3540" fill-opacity="1"><g transform="translate(230.1389, 206.464484)"><g><path d="M 3.421875 -4.78125 C 3.625 -4.882812 3.574219 -4.882812 2.96875 -5.082031 C 2.214844 -5.386719 1.914062 -5.636719 1.558594 -6.140625 C 0.402344 -7.597656 0.351562 -9.359375 1.257812 -11.925781 C 2.0625 -14.140625 2.164062 -14.542969 1.960938 -14.894531 C 1.914062 -14.996094 1.8125 -15.097656 1.761719 -15.097656 C 1.609375 -15.097656 1.207031 -15.550781 1.058594 -15.953125 C 0.90625 -16.253906 0.90625 -16.304688 1.207031 -16.558594 C 1.761719 -17.011719 3.472656 -19.171875 2.71875 -19.777344 C 2.414062 -20.03125 2.164062 -20.03125 1.660156 -19.777344 C 0.453125 -19.171875 -1.105469 -16.808594 -0.203125 -15.550781 C 0 -15.296875 0.402344 -14.894531 0.804688 -14.644531 C 0.855469 -14.59375 0.855469 -14.542969 0.804688 -14.441406 L 0.703125 -14.191406 C 0.101562 -12.882812 -0.203125 -11.976562 -0.554688 -10.871094 C -0.804688 -10.117188 -0.753906 -8.757812 -0.703125 -8.304688 C -0.503906 -6.691406 0.753906 -5.484375 2.265625 -4.980469 C 3.019531 -4.730469 3.171875 -4.679688 3.421875 -4.78125 Z M 0.90625 -16.757812 C 0.804688 -16.757812 0.90625 -17.460938 1.058594 -18.015625 C 1.207031 -18.519531 1.761719 -19.425781 1.960938 -19.476562 C 2.316406 -19.578125 2.414062 -19.578125 2.464844 -19.273438 C 2.617188 -18.722656 1.207031 -16.808594 0.90625 -16.757812 Z M 0.90625 -16.757812 "/></g></g></g><g fill="#2f3540" fill-opacity="1"><g transform="translate(234.416129, 206.464484)"><g><path d="M 4.527344 -13.941406 C 5.9375 -13.539062 7.144531 -13.941406 8.90625 -15.046875 C 10.265625 -15.902344 10.367188 -16.304688 10.164062 -16.15625 L 9.007812 -15.398438 C 7.5 -14.394531 5.285156 -13.488281 4.628906 -15.398438 C 4.480469 -15.851562 4.378906 -16.15625 4.378906 -16.859375 C 4.378906 -16.960938 4.277344 -17.109375 4.175781 -17.210938 C 3.773438 -17.613281 2.96875 -17.414062 1.914062 -16.605469 C 1.710938 -16.457031 1.558594 -16.40625 1.507812 -16.40625 C 1.460938 -16.40625 1.609375 -16.757812 1.710938 -17.058594 C 1.914062 -17.714844 2.0625 -17.867188 2.011719 -18.117188 C 1.960938 -18.316406 1.359375 -18.269531 1.007812 -18.015625 C 0.703125 -17.816406 0.605469 -17.664062 0.101562 -16.605469 C -0.25 -15.902344 -0.300781 -15.097656 0 -14.847656 C 0.300781 -14.59375 0.554688 -14.796875 1.308594 -15.550781 C 1.460938 -15.703125 2.667969 -16.808594 2.96875 -16.808594 C 3.019531 -16.808594 3.019531 -16.558594 3.019531 -16.304688 C 3.070312 -15.398438 3.222656 -14.292969 4.527344 -13.941406 Z M 4.527344 -13.941406 "/></g></g></g><g fill="#2f3540" fill-opacity="1"><g transform="translate(244.580851, 206.464484)"><g><path d="M 3.421875 -20.933594 C 3.472656 -21.238281 3.523438 -21.539062 3.523438 -21.691406 C 3.574219 -21.890625 3.523438 -21.941406 3.320312 -21.992188 L 2.816406 -21.941406 C 2.515625 -21.890625 2.515625 -21.691406 2.816406 -20.984375 C 3.171875 -20.332031 3.371094 -20.28125 3.421875 -20.933594 Z M 1.761719 -14.140625 C 2.96875 -14.140625 4.277344 -14.492188 5.484375 -15.296875 C 6.242188 -15.703125 6.996094 -16.253906 6.792969 -16.253906 C 6.691406 -16.253906 6.542969 -16.203125 6.492188 -16.15625 C 6.289062 -16.003906 5.886719 -15.75 5.335938 -15.5 C 3.925781 -14.796875 3.269531 -14.644531 1.8125 -14.644531 C 1.007812 -14.644531 0.703125 -15.046875 0.703125 -15.046875 C 0.554688 -15.25 0.605469 -15.550781 0.652344 -15.75 C 0.753906 -16.15625 1.359375 -17.363281 1.660156 -17.765625 C 1.660156 -17.816406 1.710938 -17.867188 1.710938 -17.914062 C 1.8125 -18.066406 1.863281 -18.21875 1.863281 -18.316406 C 1.761719 -18.570312 1.257812 -18.519531 0.957031 -18.269531 C 0.605469 -18.015625 0 -17.011719 -0.203125 -16.355469 C -0.351562 -15.851562 -0.605469 -15.347656 -0.453125 -15.046875 C -0.402344 -14.945312 -0.101562 -14.59375 0.503906 -14.34375 C 0.855469 -14.242188 1.257812 -14.089844 1.761719 -14.140625 Z M 1.761719 -14.140625 "/></g></g></g><g fill="#2f3540" fill-opacity="1"><g transform="translate(251.122499, 206.464484)"><g><path d="M 3.222656 -13.941406 C 4.078125 -14.191406 5.082031 -14.644531 5.789062 -15.097656 C 5.9375 -15.199219 7.597656 -16.054688 7.347656 -16.304688 C 7.296875 -16.355469 6.996094 -16.105469 6.84375 -16.003906 L 6.089844 -15.601562 C 5.183594 -15.148438 4.078125 -14.441406 2.164062 -14.441406 C 0.957031 -14.441406 0.453125 -14.945312 0.753906 -16.054688 L 0.855469 -16.253906 C 1.007812 -16.558594 1.105469 -16.605469 1.609375 -16.65625 C 2.316406 -16.707031 2.867188 -16.960938 3.222656 -17.3125 C 3.421875 -17.511719 3.523438 -17.765625 3.523438 -17.964844 C 3.523438 -18.671875 3.121094 -18.820312 1.8125 -18.417969 C 1.15625 -18.167969 0.554688 -17.5625 0.554688 -17.5625 C 0.101562 -17.058594 -0.402344 -16.355469 -0.503906 -15.652344 C -0.503906 -15.347656 -0.554688 -14.996094 -0.402344 -14.695312 C 0.0507812 -13.6875 1.507812 -13.4375 3.222656 -13.941406 Z M 1.207031 -16.960938 C 1.308594 -17.261719 1.863281 -17.964844 2.367188 -18.167969 C 2.867188 -18.417969 3.019531 -18.417969 3.070312 -18.117188 C 3.121094 -17.816406 2.96875 -17.511719 2.617188 -17.261719 C 2.164062 -17.011719 1.507812 -16.910156 1.207031 -16.960938 Z M 1.207031 -16.960938 "/></g></g></g><g fill="#2f3540" fill-opacity="1"><g transform="translate(258.267995, 206.464484)"><g><path d="M 3.421875 -4.78125 C 3.625 -4.882812 3.574219 -4.882812 2.96875 -5.082031 C 2.214844 -5.386719 1.914062 -5.636719 1.558594 -6.140625 C 0.402344 -7.597656 0.351562 -9.359375 1.257812 -11.925781 C 2.0625 -14.140625 2.164062 -14.542969 1.960938 -14.894531 C 1.914062 -14.996094 1.8125 -15.097656 1.761719 -15.097656 C 1.609375 -15.097656 1.207031 -15.550781 1.058594 -15.953125 C 0.90625 -16.253906 0.90625 -16.304688 1.207031 -16.558594 C 1.761719 -17.011719 3.472656 -19.171875 2.71875 -19.777344 C 2.414062 -20.03125 2.164062 -20.03125 1.660156 -19.777344 C 0.453125 -19.171875 -1.105469 -16.808594 -0.203125 -15.550781 C 0 -15.296875 0.402344 -14.894531 0.804688 -14.644531 C 0.855469 -14.59375 0.855469 -14.542969 0.804688 -14.441406 L 0.703125 -14.191406 C 0.101562 -12.882812 -0.203125 -11.976562 -0.554688 -10.871094 C -0.804688 -10.117188 -0.753906 -8.757812 -0.703125 -8.304688 C -0.503906 -6.691406 0.753906 -5.484375 2.265625 -4.980469 C 3.019531 -4.730469 3.171875 -4.679688 3.421875 -4.78125 Z M 0.90625 -16.757812 C 0.804688 -16.757812 0.90625 -17.460938 1.058594 -18.015625 C 1.207031 -18.519531 1.761719 -19.425781 1.960938 -19.476562 C 2.316406 -19.578125 2.414062 -19.578125 2.464844 -19.273438 C 2.617188 -18.722656 1.207031 -16.808594 0.90625 -16.757812 Z M 0.90625 -16.757812 "/></g></g></g></svg>